<svg xmlns="http://www.w3.org/2000/svg" viewBox="0 0 53.96 54"><defs><style>.cls-1{fill:#e30613;}</style></defs><title>BLM Museumx - X inv</title><g id="Ebene_2" data-name="Ebene 2"><g id="Ebene_1-2" data-name="Ebene 1"><g id="Ebene_1-2-2" data-name="Ebene 1-2"><path class="cls-1" d="M44.77,14.56a2.31,2.31,0,0,1-1.7-.59,4.74,4.74,0,0,0-2.54-.85c-2,0-6.44,5.42-10.26,11.7.93,3.89,2.38,9.49,3.31,12.62,1.1,3.82,2,5.85,3.39,5.85,2.12,0,4.24-2.79,6.44-7.46l2.21,1.28C43.16,42.87,39.43,48,33.75,48c-3.48,0-5.09-2.12-6.53-7.63-.67-2.71-1.33-5.33-2-7.88h-.17C20.05,40.63,16.57,48,10.38,48,7.16,48,5.3,46.22,5.3,43.93c0-1.78,1.86-4.41,3.64-4.41a2.72,2.72,0,0,1,1.53.51,6.63,6.63,0,0,0,3.3,1.7c3,0,7.89-8.14,10.6-13.06L20.72,15.28c-.76-2.71-1.44-2.88-3.13-2.71l-5.85.34L11.54,11,25.36,7l.5.34,3.56,14.07h.17C36,11.24,40,6.92,44.68,6.92c2.21,0,3.73,1.19,3.73,3.14,0,2.12-2.54,4.49-3.64,4.49M46.67,0H7.28A7.28,7.28,0,0,0,0,7.28H0V46.67A7.28,7.28,0,0,0,7.23,54H46.67A7.29,7.29,0,0,0,54,46.71h0V7.29A7.29,7.29,0,0,0,46.67,0h0"/></g></g></g></svg>